<svg xmlns="http://www.w3.org/2000/svg" viewBox="0 0 320 112" role="img" aria-label="Klawis legal AI: a cited passage in a document connected to a sourced answer node">
  <defs>
    <linearGradient id="g" x1="0" y1="0" x2="1" y2="1"><stop offset="0" stop-color="#D97757"/><stop offset="1" stop-color="#C89B5E"/></linearGradient>
    <radialGradient id="glow" cx="50%" cy="50%" r="50%"><stop offset="0" stop-color="#D97757" stop-opacity="0.35"/><stop offset="1" stop-color="#D97757" stop-opacity="0"/></radialGradient>
    <pattern id="grid" width="14" height="14" patternUnits="userSpaceOnUse"><path d="M14 0H0V14" fill="none" stroke="#F5F0E6" stroke-opacity="0.035"/></pattern>
  </defs>
  <rect width="320" height="112" fill="#15130F"/>
  <rect width="320" height="112" fill="url(#grid)"/>
  <path d="M18 14 L18 22 M18 14 L26 14 M302 98 L302 90 M302 98 L294 98" stroke="#6B6353" stroke-width="1"/>
  <rect x="34" y="24" width="104" height="66" rx="3" fill="none" stroke="#4A4438" stroke-width="1"/>
  <path d="M34 24 l14 -8 h90 v8" fill="none" stroke="#4A4438" stroke-width="1"/>
  <line x1="46" y1="40" x2="118" y2="40" stroke="#6B6353" stroke-width="1.2"/>
  <line x1="46" y1="49" x2="126" y2="49" stroke="#6B6353" stroke-width="1.2"/>
  <line x1="46" y1="64" x2="70" y2="64" stroke="#D97757" stroke-width="1.6"/>
  <line x1="46" y1="72" x2="122" y2="72" stroke="url(#g)" stroke-width="2"/>
  <text x="46" y="66" font-family="Georgia,serif" font-size="13" fill="#D97757" opacity="0.85">"</text>
  <line x1="46" y1="80" x2="100" y2="80" stroke="#4A4438" stroke-width="1.2"/>
  <path d="M138 72 C 175 72, 175 42, 210 42" fill="none" stroke="#D97757" stroke-width="1" stroke-dasharray="1.5 4" opacity="0.7"/>
  <circle cx="222" cy="42" r="19" fill="url(#glow)"/>
  <circle cx="222" cy="42" r="13" fill="#1D1B15" stroke="url(#g)" stroke-width="1.3"/>
  <path d="M216 36h8l3 3v9h-14v-9z" fill="none" stroke="#C89B5E" stroke-width="1.1"/>
  <line x1="217.5" y1="41" x2="225.5" y2="41" stroke="#C89B5E" stroke-width="0.9"/>
  <line x1="217.5" y1="44.5" x2="223" y2="44.5" stroke="#C89B5E" stroke-width="0.9"/>
  <text x="302" y="102" text-anchor="end" font-family="ui-monospace,monospace" font-size="7.5" letter-spacing="0.5" fill="#8A7F6B">RAG · SOURCED</text>
</svg>
