<svg xmlns="http://www.w3.org/2000/svg" viewBox="0 0 320 112" role="img" aria-label="Task-manager bot: a queue of tasks resolving to a checkmark, dispatched over Telegram">
  <defs>
    <linearGradient id="g" x1="0" y1="0" x2="1" y2="0"><stop offset="0" stop-color="#E8925A"/><stop offset="1" stop-color="#4AA3E0"/></linearGradient>
    <radialGradient id="gl" cx="50%" cy="50%" r="50%"><stop offset="0" stop-color="#4AA3E0" stop-opacity="0.42"/><stop offset="1" stop-color="#4AA3E0" stop-opacity="0"/></radialGradient>
    <pattern id="gr" width="14" height="14" patternUnits="userSpaceOnUse"><path d="M14 0H0V14" fill="none" stroke="#F5F0E6" stroke-opacity="0.05"/></pattern>
  </defs>
  <rect width="320" height="112" fill="#1A130C"/>
  <rect width="320" height="112" fill="url(#gr)"/>
  <path d="M18 14 L18 22 M18 14 L26 14 M302 98 L302 90 M302 98 L294 98" stroke="#F5F0E6" stroke-opacity="0.24" stroke-width="1"/>
  <rect x="34" y="26" width="12" height="12" rx="2.5" fill="#E8925A"/>
  <path d="M37 32 l2.4 2.4 l4.4 -4.8" fill="none" stroke="#1A130C" stroke-width="1.4" stroke-linecap="round" stroke-linejoin="round"/>
  <line x1="52" y1="32" x2="118" y2="32" stroke="#F5F0E6" stroke-opacity="0.22" stroke-width="1.2"/>
  <rect x="34" y="46" width="12" height="12" rx="2.5" fill="#E8925A"/>
  <path d="M37 52 l2.4 2.4 l4.4 -4.8" fill="none" stroke="#1A130C" stroke-width="1.4" stroke-linecap="round" stroke-linejoin="round"/>
  <line x1="52" y1="52" x2="128" y2="52" stroke="#F5F0E6" stroke-opacity="0.22" stroke-width="1.2"/>
  <rect x="34" y="66" width="12" height="12" rx="2.5" fill="none" stroke="#8a6a52" stroke-width="1.3"/>
  <line x1="52" y1="72" x2="110" y2="72" stroke="#F5F0E6" stroke-opacity="0.13" stroke-width="1.2"/>
  <path d="M138 52 C 172 52, 172 52, 200 52" fill="none" stroke="#4AA3E0" stroke-width="1.2" stroke-dasharray="1.5 4"/>
  <circle cx="222" cy="52" r="21" fill="url(#gl)"/>
  <circle cx="222" cy="52" r="14" fill="#26190f" stroke="url(#g)" stroke-width="1.4"/>
  <path d="M214 61 l24 -15 l-8 20 l-5 -6 z" fill="#4AA3E0" opacity="0.9"/>
  <path d="M218 55 l14 -8 l-9 12 z" fill="#26190f" opacity="0.5"/>
  <text x="302" y="102" text-anchor="end" font-family="ui-monospace,monospace" font-size="7.5" letter-spacing="0.5" fill="#F5F0E6" fill-opacity="0.42">QUEUE · DISPATCHED</text>
</svg>
