<svg xmlns="http://www.w3.org/2000/svg" viewBox="0 0 320 112" role="img" aria-label="TTYL Platform: workspace, chat and files modules inside a closed on-prem perimeter">
  <defs>
    <linearGradient id="g" x1="0" y1="0" x2="1" y2="1"><stop offset="0" stop-color="#3FC7AE"/><stop offset="1" stop-color="#6FA3C7"/></linearGradient>
    <radialGradient id="gl" cx="50%" cy="50%" r="50%"><stop offset="0" stop-color="#3FC7AE" stop-opacity="0.45"/><stop offset="1" stop-color="#3FC7AE" stop-opacity="0"/></radialGradient>
    <pattern id="gr" width="14" height="14" patternUnits="userSpaceOnUse"><path d="M14 0H0V14" fill="none" stroke="#F5F0E6" stroke-opacity="0.05"/></pattern>
  </defs>
  <rect width="320" height="112" fill="#0E1C24"/>
  <rect width="320" height="112" fill="url(#gr)"/>
  <path d="M18 14 L18 22 M18 14 L26 14 M302 98 L302 90 M302 98 L294 98" stroke="#F5F0E6" stroke-opacity="0.24" stroke-width="1"/>
  <rect x="44" y="16" width="232" height="80" rx="8" fill="none" stroke="#3FC7AE" stroke-opacity="0.32" stroke-width="1" stroke-dasharray="2 4"/>
  <rect x="70" y="34" width="46" height="30" rx="3" fill="#172c34" stroke="url(#g)" stroke-width="1.2"/>
  <line x1="78" y1="43" x2="108" y2="43" stroke="#F5F0E6" stroke-opacity="0.28" stroke-width="1"/>
  <line x1="78" y1="50" x2="100" y2="50" stroke="#F5F0E6" stroke-opacity="0.15" stroke-width="1"/>
  <rect x="137" y="34" width="46" height="30" rx="3" fill="#172c34" stroke="url(#g)" stroke-width="1.2"/>
  <circle cx="147" cy="45" r="2.3" fill="#3FC7AE"/>
  <line x1="153" y1="45" x2="175" y2="45" stroke="#F5F0E6" stroke-opacity="0.28" stroke-width="1"/>
  <line x1="147" y1="53" x2="170" y2="53" stroke="#F5F0E6" stroke-opacity="0.15" stroke-width="1"/>
  <rect x="204" y="34" width="46" height="30" rx="3" fill="#172c34" stroke="url(#g)" stroke-width="1.2"/>
  <path d="M215 46 v-3 a5 5 0 0 1 10 0 v3" fill="none" stroke="#6FA3C7" stroke-width="1.1"/>
  <rect x="212" y="46" width="16" height="12" rx="2" fill="none" stroke="#6FA3C7" stroke-width="1.1"/>
  <circle cx="160" cy="82" r="15" fill="url(#gl)"/>
  <path d="M152 82 a8 8 0 1 1 16 0 a8 8 0 1 1 -16 0" fill="none" stroke="url(#g)" stroke-width="1.6"/>
  <path d="M156 82 l3 3 l5 -6" fill="none" stroke="#F5F0E6" stroke-width="1.5" stroke-linecap="round" stroke-linejoin="round"/>
  <text x="302" y="102" text-anchor="end" font-family="ui-monospace,monospace" font-size="7.5" letter-spacing="0.5" fill="#F5F0E6" fill-opacity="0.42">ON-PREM · CLOSED</text>
</svg>
