<svg xmlns="http://www.w3.org/2000/svg" viewBox="0 0 320 112" role="img" aria-label="Browser automation: a browser window with terminal logs, a retry loop and screenshot captures">
  <rect width="320" height="112" fill="#0a0f12"/>
  <rect x="12" y="14" width="180" height="84" rx="7" fill="#0f171b"/>
  <path d="M12 21 a7 7 0 0 1 7 -7 h166 a7 7 0 0 1 7 7 v9 h-180 z" fill="#132025"/>
  <rect x="22" y="20" width="20" height="5" rx="2.5" fill="#1c3238"/>
  <rect x="46" y="20" width="20" height="5" rx="2.5" fill="#1c3238"/>
  <rect x="72" y="19" width="110" height="7" rx="3.5" fill="#14262b"/>
  <rect x="24" y="40" width="8" height="4" rx="2" fill="#37C6D0"/>
  <rect x="38" y="40" width="90" height="4" rx="2" fill="#26575c"/>
  <rect x="24" y="52" width="8" height="4" rx="2" fill="#37C6D0"/>
  <rect x="38" y="52" width="120" height="4" rx="2" fill="#26575c"/>
  <rect x="24" y="64" width="8" height="4" rx="2" fill="#37C6D0"/>
  <rect x="38" y="64" width="70" height="4" rx="2" fill="#26575c"/>
  <rect x="24" y="76" width="8" height="4" rx="2" fill="#37C6D0"/>
  <rect x="38" y="76" width="46" height="4" rx="2" fill="#37C6D0" opacity="0.6"/>
  <path d="M236 44 a20 20 0 1 0 20 -20" fill="none" stroke="#37C6D0" stroke-width="2"/>
  <path d="M256 20 l1.6 8 l-8 -1 z" fill="#37C6D0"/>
  <rect x="216" y="66" width="40" height="30" rx="4" fill="#0f171b" stroke="#1c3238" stroke-width="1.5"/>
  <rect x="264" y="66" width="40" height="30" rx="4" fill="#0f171b" stroke="#1c3238" stroke-width="1.5"/>
  <rect x="222" y="82" width="28" height="3" rx="1.5" fill="#26575c"/>
  <rect x="270" y="82" width="28" height="3" rx="1.5" fill="#26575c"/>
</svg>
